<mxfile host="app.diagrams.net" modified="2024-05-17T04:49:57.336Z" agent="Mozilla/5.0 (Windows NT 10.0; Win64; x64) AppleWebKit/537.36 (KHTML, like Gecko) Chrome/124.0.0.0 Safari/537.36" version="24.4.3" etag="h0CdiahQOR0XO4S6hV-S" type="github">
  <diagram name="Page-1" id="qJIy1xHnYl89JL0tMcxl">
    <mxGraphModel>
      <root>
        <mxCell id="0" />
        <mxCell id="1" parent="0" />
      </root>
    </mxGraphModel>
  </diagram>
</mxfile>
